<?xml version="1.0" encoding="UTF-8" standalone="no"?>
<svg width="512" height="512" viewBox="0 0 512 512" fill="none" xmlns="http://www.w3.org/2000/svg">
  <rect width="512" height="512" rx="256" fill="#000000"/>
  <path d="M256 96C256 96 201.6 183.6 201.6 224C201.6 264.4 224 297.6 256 297.6C288 297.6 310.4 264.4 310.4 224C310.4 183.6 256 96 256 96ZM352 288C352 288 320 339.2 320 364.8C320 390.4 334.4 411.2 352 411.2C369.6 411.2 384 390.4 384 364.8C384 339.2 352 288 352 288ZM160 288C160 288 128 339.2 128 364.8C128 390.4 142.4 411.2 160 411.2C177.6 411.2 192 390.4 192 364.8C192 339.2 160 288 160 288ZM256 32C256 32 150 184 150 256C150 328 197 384 256 384C315 384 362 328 362 256C362 184 256 32 256 32Z" fill="#FF4500"/>
</svg> 